<svg xmlns="http://www.w3.org/2000/svg" xmlns:xlink="http://www.w3.org/1999/xlink" id="Layer_1" x="0" y="0" version="1.1" viewBox="0 0 128 128" style="enable-background:new 0 0 128 128" xml:space="preserve"><style type="text/css">.st0{fill:#020203}.st1{fill:#b11c22}.st2{fill:#afafaf}</style><rect width="128" height="128" y="0" class="st0"/><g><path d="M43.4,67.2V38c3-1.6,7.7-3.4,10.2-3.4c2.4,0,3.4,1.3,3.4,3.4v27.3l14-2V38c3-1.6,7.7-3.4,10.2-3.4 c2.4,0,3.4,1.3,3.4,3.4v23.4l14-2V36.1C98.5,27,95.7,21,87.6,21c-6.5,0-13.6,1.9-18.9,4.6C67,22.7,64.2,21,60.1,21 c-5.4,0-13,1.7-18.8,4.6L39.8,22H29.4v47.2l0,0L43.4,67.2z" class="st1"/></g><g><polygon points="71 91 71 110.5 57 112.4 57 69.2 71 67.2 71 79" class="st2"/></g><g><path d="M70.5,91.1c3.2,0.8,8.1,1.4,12,1.4c11.1,0,15.9-6.3,15.9-17.5V63.3l-14,2V75c0,3.1-1.4,5.3-5,5.3 c-2.9,0-6.5-0.6-8.9-1.2V91.1z" class="st2"/></g></svg>