<svg xmlns="http://www.w3.org/2000/svg" xmlns:xlink="http://www.w3.org/1999/xlink" id="Layer_1" x="0" y="0" version="1.1" viewBox="0 0 16 16" style="enable-background:new 0 0 16 16" xml:space="preserve"><style type="text/css">.st0{fill:#020203}.st1{fill:#d8001a}.st2{fill:#ccc}</style><rect width="16" height="16" class="st0"/><g><path d="M4.8,8.4V3.8C5.3,3.6,6,3.3,6.4,3.3s0.5,0.2,0.5,0.5V8L9,7.8v-4c0.5-0.2,1.2-0.5,1.6-0.5 c0.4,0,0.5,0.2,0.5,0.5v3.6l2.1-0.2V3.6c0-1.4-0.5-2.4-1.7-2.4c-1,0-2.1,0.2-3,0.7c0-0.5-0.5-0.7-1.1-0.7c-0.9,0-2,0.2-3,0.7 L4.3,1.3H2.7v7.3l0,0L4.8,8.4z" class="st1"/></g><g><polygon points="9.1 12.1 9.1 15.1 6.9 15.4 6.9 8.7 9.1 8.4 9.1 10.3" class="st2"/></g><g><path d="M9,12.1c0.5,0.1,1.2,0.2,1.9,0.2c1.7,0,2.5-1,2.5-2.7V7.8L11.3,8v1.5c0,0.5-0.2,0.9-0.7,0.9s-1.1,0-1.5-0.1 L9,12.1L9,12.1z" class="st2"/></g></svg>