<svg xmlns="http://www.w3.org/2000/svg" xmlns:xlink="http://www.w3.org/1999/xlink" id="Layer_1" x="0" y="0" version="1.1" viewBox="0 0 24 24" style="enable-background:new 0 0 24 24" xml:space="preserve"><style type="text/css">.st0{fill:#020203}.st1{fill:#d8001a}.st2{fill:#ccc}</style><rect width="23.9" height="23.9" class="st0"/><g><path d="M7.2,12.6V5.7C7.9,5.4,9,5,9.6,5s0.7,0.4,0.7,0.7V12l3.2-0.4V5.7C14.2,5.4,15.3,5,15.9,5 c0.6,0,0.7,0.4,0.7,0.7v5.4l3.2-0.4V5.4c0-2-0.7-3.5-2.6-3.5c-1.5,0-3.2,0.4-4.5,1.1c0-0.7-0.7-1.1-1.7-1.1C9.7,1.9,8,2.3,6.5,3 L6.4,2H4v11l0,0L7.2,12.6z" class="st1"/></g><g><polygon points="13.7 18.2 13.7 22.6 10.3 23 10.3 13 13.7 12.6 13.7 15.4" class="st2"/></g><g><path d="M13.5,18.2c0.7,0.2,1.9,0.4,2.8,0.4c2.6,0,3.7-1.5,3.7-4.1v-2.8l-3.2,0.4v2.2c0,0.7-0.4,1.3-1.1,1.3 c-0.7,0-1.7,0-2.2-0.2C13.5,15.4,13.5,18.2,13.5,18.2z" class="st2"/></g></svg>