<svg xmlns="http://www.w3.org/2000/svg" xmlns:xlink="http://www.w3.org/1999/xlink" id="Layer_1" x="0" y="0" version="1.1" viewBox="0 0 36 36" style="enable-background:new 0 0 36 36" xml:space="preserve"><style type="text/css">.st0{fill:#020203}.st1{fill:#d8001a}.st2{fill:#ccc}</style><rect width="36" height="36" class="st0"/><g><path d="M10.7,19V8.6c1.1-0.6,2.8-1.1,3.6-1.1c0.8,0,1.1,0.6,1.1,1.1v9.5l4.7-0.6V8.6c1.1-0.6,2.8-1.1,3.6-1.1 S25,8.1,25,8.6v8.1l4.7-0.6v-8c0-3.1-1.1-5.3-3.9-5.3c-2.2,0-4.7,0.6-6.7,1.7c0-1.1-1.1-1.7-2.5-1.7c-2,0-4.5,0.6-6.7,1.7L9.6,3H6 v16.5l0,0L10.7,19z" class="st1"/></g><g><polygon points="20.5 27.3 20.5 34 15.5 34.6 15.5 19.5 20.5 19 20.5 23.1" class="st2"/></g><g><path d="M20.2,27.3c1.1,0.3,2.8,0.6,4.2,0.6c3.9,0,5.6-2.2,5.6-6.1v-4.2l-4.7,0.6v3.4c0,1.1-0.6,2-1.7,2 s-2.5,0-3.4-0.3C20.2,23.3,20.2,27.3,20.2,27.3z" class="st2"/></g></svg>