<svg xmlns="http://www.w3.org/2000/svg" xmlns:xlink="http://www.w3.org/1999/xlink" id="Layer_1" x="0" y="0" version="1.1" viewBox="0 0 48 48" style="enable-background:new 0 0 48 48" xml:space="preserve"><style type="text/css">.st0{fill:#020203}.st1{fill:#b11c22}.st2{fill:#afafaf}</style><rect width="48" height="48" y="0" class="st0"/><g><path d="M16.3,25.2v-11c1.1-0.6,2.9-1.3,3.8-1.3s1.3,0.5,1.3,1.3v10.2l5.2-0.7v-9.5c1.1-0.6,2.9-1.3,3.8-1.3 s1.3,0.5,1.3,1.3V23l5.2-0.7v-8.7c0-3.4-1.1-5.7-4.1-5.7c-2.4,0-5.1,0.7-7.1,1.7c-0.6-1.1-1.7-1.7-3.2-1.7c-2,0-4.9,0.7-7.1,1.7 l-0.5-1.3H11V26l0,0L16.3,25.2z" class="st1"/></g><g><polygon points="26.6 34.1 26.6 41.4 21.4 42.1 21.4 25.9 26.6 25.2 26.6 29.6" class="st2"/></g><g><path d="M26.5,34.2c1.2,0.3,3.1,0.5,4.5,0.5c4.1,0,6-2.4,6-6.5v-4.4l-5.2,0.7v3.6c0,1.2-0.5,2-1.9,2 c-1.1,0-2.4-0.2-3.3-0.4v4.5H26.5z" class="st2"/></g></svg>