<svg xmlns="http://www.w3.org/2000/svg" xmlns:xlink="http://www.w3.org/1999/xlink" id="Layer_1" x="0" y="0" version="1.1" viewBox="0 0 72 72" style="enable-background:new 0 0 72 72" xml:space="preserve"><style type="text/css">.st0{fill:#020203}.st1{fill:#b11c22}.st2{fill:#afafaf}</style><rect width="72" height="72" y="0" class="st0"/><g><path d="M24.4,37.8V21.4c1.7-0.9,4.3-1.9,5.7-1.9c1.4,0,1.9,0.7,1.9,1.9v15.4l7.9-1.1V21.4c1.7-0.9,4.3-1.9,5.7-1.9 s1.9,0.7,1.9,1.9v13.1l7.9-1.1v-13c0-5.1-1.6-8.5-6.1-8.5c-3.7,0-7.6,1.1-10.6,2.6c-0.9-1.6-2.5-2.6-4.9-2.6c-3.1,0-7.3,1-10.6,2.6 l-0.8-2h-5.8v26.6l0,0L24.4,37.8z" class="st1"/></g><g><polygon points="39.9 51.2 39.9 62.1 32.1 63.2 32.1 38.9 39.9 37.8 39.9 44.5" class="st2"/></g><g><path d="M39.7,51.2c1.8,0.4,4.6,0.8,6.8,0.8c6.2,0,8.9-3.5,8.9-9.8v-6.6l-7.9,1.1v5.4c0,1.7-0.8,3-2.8,3 c-1.6,0-3.7-0.3-5-0.7V51.2z" class="st2"/></g></svg>